<?xml version="1.0" encoding="utf-8"?>
<!-- Generator: Adobe Illustrator 19.0.0, SVG Export Plug-In . SVG Version: 6.00 Build 0)  -->
<svg version="1.1" id="Layer_1" xmlns="http://www.w3.org/2000/svg" xmlns:xlink="http://www.w3.org/1999/xlink" x="0px" y="0px"
	 viewBox="117 -117 384 384" style="enable-background:new 117 -117 384 384;" xml:space="preserve">
<style type="text/css">
	.st0{fill:#631A00;}
	.st1{fill:#BF8003;}
	.st2{fill:#AB7402;}
	.st3{fill:#9B6901;}
	.st4{fill:#4D1600;}
	.st5{fill:#835800;}
	.st6{fill:#923F00;}
	.st7{fill:#C99A32;}
	.st8{fill:#A27412;}
	.st9{fill:#885C01;}
	.st10{fill:#7A2C00;}
	.st11{fill:#A57B24;}
	.st12{fill:#E5A270;}
	.st13{fill:#A76633;}
	.st14{fill:#BC7A47;}
	.st15{fill:#CD8856;}
	.st16{fill:#FBDA96;}
	.st17{fill:#F5C553;}
	.st18{fill:#DAB760;}
	.st19{fill:#ECBE51;}
	.st20{fill:#EAC883;}
	.st21{fill:#CAA54C;}
	.st22{fill:#D89E24;}
	.st23{fill:#F5D28C;}
	.st24{fill:#9D5A27;}
	.st25{fill:#EFCD8A;}
	.st26{fill:#8F6001;}
	.st27{fill:#E0B54D;}
	.st28{fill:#DCBB73;}
</style>
<g>
	<g>
		<path class="st0" d="M405.4,267.4c-64,0-128,0-192,0c0-8,0-16,0-24v-0.1c8,0,16,0,24,0s16,0,24,0s16,0,24,0c16,0,32,0,48,0
			c8,0,16,0,24,0s16,0,24,0s16,0,24,0v0.1C405.4,251.4,405.4,259.4,405.4,267.4z"/>
		<path class="st1" d="M237.4-116.6c48,0,96,0,144,0c0,8,0,16,0,24c-8,0-16,0-24,0s-16,0-24,0s-16,0-24,0s-16,0-24,0
			c-16,0-32,0-48,0C237.4-100.6,237.4-108.6,237.4-116.6z"/>
		<path class="st1" d="M165.4-92.6c0-8,0-16,0-24c16,0,32,0,48,0c0,8,0,16,0,24C197.4-92.6,181.4-92.6,165.4-92.6L165.4-92.6z"/>
		<path class="st1" d="M453.4-116.6c0,8,0,16,0,24l0,0c-16,0-32,0-48,0c0-8,0-16,0.1-24C421.4-116.6,437.4-116.6,453.4-116.6z"/>
		<path class="st2" d="M501.4-44.6c0,8,0,16,0,24c-8,0-16,0-23.9,0c0-8,0-16,0-24C485.4-44.6,493.4-44.6,501.4-44.6z"/>
		<path class="st3" d="M141.4,3.3c-8,0-16,0-24,0c0-8,0-16,0-24c8,0,16,0,23.9,0C141.3-12.6,141.3-4.6,141.4,3.3L141.4,3.3z"/>
		<path class="st3" d="M477.4-20.6c8,0,16,0,23.9,0c0,8,0,16,0,24c-8,0-16,0-24,0l0,0C477.4-4.6,477.4-12.6,477.4-20.6z"/>
		<path class="st1" d="M117.4-68.6c8,0,16,0,24,0l0,0c0,8,0,16,0,24c-8,0-16,0-23.9,0C117.4-52.6,117.4-60.6,117.4-68.6z"/>
		<path class="st1" d="M501.4-44.6c-8,0-16,0-23.9,0c0-8,0-16,0-24l0,0c8,0,16,0,24,0C501.4-60.6,501.4-52.6,501.4-44.6z"/>
		<path class="st4" d="M213.4,243.4c0,8,0,16,0,24c-8,0-16,0-24,0c0-8,0-16,0.1-24C197.4,243.4,205.4,243.4,213.4,243.4z"/>
		<path class="st2" d="M117.4-44.6c8,0,16,0,23.9,0h0.1c0,8,0,16,0,24h-0.1c-8,0-16,0-23.9,0C117.4-28.6,117.4-36.6,117.4-44.6z"/>
		<path class="st4" d="M405.4,267.4c0-8,0-16,0-24c8,0,16,0,23.9,0c0,8,0,16,0.1,24C421.4,267.4,413.4,267.4,405.4,267.4z"/>
		<path class="st5" d="M429.4,51.4c0,7.9,0,15.8,0,24c-16.1,0-32,0-48,0l0,0c0-8,0-16,0-24l0,0C397.4,51.4,413.4,51.4,429.4,51.4
			L429.4,51.4z"/>
		<path class="st5" d="M357.4,99.4c0,15.3,0,30.6,0,45.9c0,0.7,0,1.4-0.1,2.1c-8,0-15.9,0-23.9,0c0-16,0-32,0-47.9
			C341.4,99.4,349.4,99.4,357.4,99.4L357.4,99.4z"/>
		<path class="st6" d="M357.4,171.4c15.9,0,31.8,0,48,0c0,8,0,16,0,24l0,0c-8,0-16,0-24,0s-16,0-24.1-0.1
			C357.4,187.4,357.4,179.4,357.4,171.4L357.4,171.4z"/>
		<path class="st7" d="M477.4,3.4c0,7.9,0,15.8,0,24c-8.1,0-16,0-24,0l0,0c0-8,0-16,0-24C461.4,3.4,469.4,3.4,477.4,3.4L477.4,3.4z"
			/>
		<path class="st8" d="M453.4,27.4c0,7.9,0,15.8,0,24c-8.1,0-16.1,0-24,0l0,0c0-8,0-16,0-24C437.4,27.4,445.4,27.4,453.4,27.4
			L453.4,27.4z"/>
		<path class="st9" d="M381.4,75.4c0,7.9,0,15.8,0,24c-8.1,0-16,0-24,0l0,0c0-8,0-16,0.1-24C365.4,75.4,373.4,75.4,381.4,75.4
			L381.4,75.4z"/>
		<path class="st8" d="M333.4,147.4c8,0,15.9,0,23.9,0c0,8,0,16,0.1,24l0,0c-8,0-16,0-24,0C333.4,163.3,333.4,155.3,333.4,147.4z"/>
		<path class="st6" d="M405.4,195.4c7.9,0,15.9,0,23.9,0c0,8.1,0,16,0,24c-8,0-15.9,0-23.9,0h-0.1
			C405.3,211.4,405.4,203.4,405.4,195.4L405.4,195.4z"/>
		<path class="st10" d="M405.4,219.4c8,0,15.9,0,23.9,0c0,8,0,16,0,24c-8,0-16,0-23.9,0v-0.1C405.4,235.3,405.4,227.4,405.4,219.4z"
			/>
		<path class="st9" d="M261.4,147.4c0-12.6,0-25.3-0.1-37.9c0-3.4,0-6.7,0-10.1l0,0c8,0,16,0,24,0c0,16,0,32,0,47.9
			C277.4,147.4,269.4,147.4,261.4,147.4z"/>
		<path class="st6" d="M213.4,195.4c0-7.9,0-15.9,0-24c16.1,0,32,0,48,0l0,0c0,8,0,16,0.1,24c-8,0-16,0-24.1,0
			C229.4,195.4,221.4,195.4,213.4,195.4L213.4,195.4z"/>
		<path class="st5" d="M237.4,75.4c-15.9,0-31.9,0-48,0c0-8,0-16,0-24l0,0c16,0,32,0,48,0l0,0C237.4,59.4,237.4,67.4,237.4,75.4
			L237.4,75.4z"/>
		<path class="st7" d="M165.4,27.4c-7.9,0-15.8,0-24,0c0-8.1,0-16,0-24l0,0c8,0,16,0,24,0C165.4,11.4,165.4,19.4,165.4,27.4
			L165.4,27.4z"/>
		<path class="st11" d="M189.4,51.4c-7.9,0-15.8,0-24,0c0-8.1,0-16,0-24l0,0c8,0,16,0,24,0C189.4,35.4,189.4,43.4,189.4,51.4
			L189.4,51.4z"/>
		<path class="st9" d="M261.4,99.4c-7.9,0-15.9,0-24,0c0-8.1,0-16,0-24l0,0c8,0,16,0,23.9,0.1C261.3,83.4,261.4,91.4,261.4,99.4
			L261.4,99.4z"/>
		<path class="st11" d="M261.4,147.4c8,0,15.9,0,23.9,0c0,8,0,16,0,24c-8,0-16,0-24,0l0,0C261.4,163.4,261.4,155.4,261.4,147.4z"/>
		<path class="st6" d="M189.4,219.4c0-7.9,0-15.9,0-24c8,0,16,0,23.9,0l0,0c0,8,0,16,0.1,24h-0.1
			C205.3,219.4,197.4,219.4,189.4,219.4z"/>
		<path class="st10" d="M189.4,219.4c8,0,15.9,0,23.9,0c0,8,0.1,16,0.1,24v0.1c-8,0-16,0-23.9,0
			C189.4,235.4,189.4,227.4,189.4,219.4z"/>
		<path class="st12" d="M333.4,243.3c-16,0-32,0-48,0c0-8,0-15.9,0-23.9v-0.1c2,0,4,0,6,0c14,0,28,0,42,0.1
			C333.4,227.4,333.4,235.4,333.4,243.3z"/>
		<path class="st13" d="M213.4,243.3c0-8-0.1-16-0.1-24h0.1c8,0,16,0,23.9,0l0,0c0,8,0,16,0,24C229.4,243.3,221.4,243.3,213.4,243.3
			z"/>
		<path class="st14" d="M237.4,243.3c0-8,0-16,0-24c8,0,16,0,24,0c0,8,0,16,0,23.9C253.4,243.3,245.4,243.3,237.4,243.3z"/>
		<path class="st15" d="M261.4,243.3c0-8,0-16,0-23.9c8,0,16,0,24,0c0,8,0,15.9,0,23.9C277.4,243.3,269.4,243.3,261.4,243.3z"/>
		<path class="st15" d="M333.4,243.3c0-8,0-15.9,0-23.9v-0.1c8,0,16,0,24,0l0,0c0,8,0,16,0,23.9
			C349.4,243.3,341.4,243.3,333.4,243.3z"/>
		<path class="st14" d="M357.4,243.3c0-8,0-16,0-23.9c8,0,16,0,24,0c0,8,0,16,0,24C373.4,243.3,365.4,243.3,357.4,243.3z"/>
		<path class="st13" d="M381.4,243.3c0-8,0-16,0-24l0,0c8,0,16,0,23.9,0h0.1c0,8-0.1,16-0.1,24C397.4,243.3,389.4,243.3,381.4,243.3
			z"/>
		<path class="st16" d="M237.3-92.6c16,0,32,0,48,0c0,8,0,16,0,23.9c-7.2,0-14.5,0.1-21.7,0c-1.8,0-2.3,0.4-2.3,2.2
			c0.1,31.3,0,62.5,0,93.8c0,8,0,16,0,24.1c-8,0-16,0-24,0l0,0c0-8,0-16,0-24s0-16,0-24s0-16,0-24s0-16,0-24s0-16,0-24
			S237.4-84.6,237.3-92.6L237.3-92.6z"/>
		<path class="st17" d="M357.4-92.6c8,0,16,0,24,0l0,0c0,8,0,16,0,24.1c0,16,0,32,0,48c0,8,0,16,0,24s0,16,0,24s0,16,0,24l0,0
			c-8,0-16,0-24,0c0-8,0-16,0-24c0-32,0-64,0-96C357.4-76.6,357.4-84.6,357.4-92.6z"/>
		<path class="st18" d="M309.4-92.6c8,0,16,0,24,0c0,8,0,16,0,24c-8,0-16,0-24,0C309.4-76.6,309.4-84.6,309.4-92.6z"/>
		<path class="st19" d="M333.4-68.6c0-8,0-16,0-24c8,0,16,0,24,0c0,8,0,16,0,24C349.4-68.6,341.4-68.6,333.4-68.6L333.4-68.6z"/>
		<path class="st20" d="M309.4-92.6c0,8,0,16,0,24l0,0c-8,0-16,0-24,0l0,0c0-8,0-16,0-23.9C293.4-92.6,301.4-92.6,309.4-92.6z"/>
		<path class="st21" d="M141.4-68.6c0-7.9,0-15.8,0-24c8.1,0,16,0,24,0l0,0c0,8,0,16,0,24C157.4-68.6,149.4-68.6,141.4-68.6
			L141.4-68.6z"/>
		<path class="st22" d="M453.4-92.6c7.9,0,15.8,0,24,0c0,8.1,0,16,0,24l0,0c-8,0-16,0-24,0C453.4-76.6,453.4-84.6,453.4-92.6
			L453.4-92.6z"/>
		<path class="st23" d="M165.4-68.6c0-8,0-16,0-24c16,0,32,0,48,0l0,0c0,8,0,16,0,24c-8,0-16,0.1-24,0.1
			C181.4-68.6,173.4-68.6,165.4-68.6L165.4-68.6z"/>
		<path class="st19" d="M453.4-92.6c0,8,0,16,0,24l0,0c-8,0-16,0-24,0.1c-8,0-16-0.1-23.9-0.1c0-8,0-16-0.1-24l0,0
			C421.3-92.6,437.3-92.6,453.4-92.6z"/>
		<path class="st17" d="M453.4-68.6c8,0,16,0,24,0c0,8,0,16,0,24s0,16,0,24s0,16,0,24c-8,0-16,0-24,0l0,0c0-8,0-16-0.1-24
			c0-8,0-16,0-24S453.4-60.6,453.4-68.6L453.4-68.6z"/>
		<path class="st23" d="M165.4,3.4c-8,0-16,0-24,0c0-8,0-16-0.1-24h0.1c8,0,15.9,0,23.9,0C165.3-12.6,165.3-4.6,165.4,3.4L165.4,3.4
			z"/>
		<path class="st22" d="M213.3-68.7c0-8,0-16,0-24c8,0,16,0,24,0c0,8,0,16-0.1,24C229.3-68.6,221.3-68.7,213.3-68.7z"/>
		<path class="st1" d="M405.4-92.7c0,8,0,16,0.1,24c-8,0-16,0-24,0.1c0-8,0-16,0-24.1C389.4-92.7,397.4-92.7,405.4-92.7z"/>
		<path class="st23" d="M141.4-68.6c8,0,16,0,24,0l0,0c0,8,0,16-0.1,24c-8,0-15.9,0-23.9,0h-0.1C141.3-52.6,141.3-60.6,141.4-68.6z"
			/>
		<path class="st16" d="M141.4-44.6c8,0,15.9,0,23.9,0h0.1c0,8,0,16,0,24h-0.1c-8,0-15.9,0-23.9,0C141.4-28.6,141.4-36.6,141.4-44.6
			z"/>
		<path class="st7" d="M381.4,51.4c0-8,0-16,0-24c7.9,0,15.8,0,24,0c0-8.1,0-16,0-23.9c8,0,16,0,24,0c0,8,0,16,0,23.9c0,8,0,16,0,24
			C413.4,51.4,397.4,51.4,381.4,51.4z"/>
		<path class="st7" d="M357.4,51.4c8,0,16,0,24,0c0,8,0,16,0,24c-8,0-16,0-24,0.1l-0.1-0.1C357.3,67.3,357.4,59.4,357.4,51.4z"/>
		<path class="st21" d="M309.4-68.6c8,0,16,0,24,0l0,0c0,32,0,64,0,96c0,16,0,32,0,48c0,8,0,16,0,24c0,16,0,32,0,47.9c0,8,0,16,0,24
			v0.1c-8,0-16,0-24-0.1c0-0.9,0-1.9,0-2.8c0-38.8,0-77.6,0-116.4C309.4,11.9,309.4-28.4,309.4-68.6L309.4-68.6z"/>
		<path class="st7" d="M333.4,99.4c0-8,0-16,0-24c8,0,16,0,23.9,0l0.1,0.1c0,8,0,16-0.1,24C349.4,99.4,341.4,99.4,333.4,99.4z"/>
		<path class="st19" d="M333.4,171.3c8,0,16,0,24,0c0,8,0,16,0,24l0,0c-8,0-16,0.1-24,0.1v-0.1C333.4,187.3,333.4,179.4,333.4,171.3
			C333.4,171.4,333.4,171.3,333.4,171.3z"/>
		<path class="st13" d="M381.4,219.4c-8,0-16,0-24,0l0,0c0-8,0-16,0-24l0,0c8,0,16,0,24.1,0.1C381.4,203.4,381.4,211.4,381.4,219.4
			L381.4,219.4z"/>
		<path class="st15" d="M381.4,219.4c0-8,0-16,0-24c8,0,16,0,24,0c0,8,0,16-0.1,24C397.3,219.4,389.4,219.4,381.4,219.4z"/>
		<path class="st19" d="M429.4,27.4c0-8,0-16,0-23.9V3.4c8,0,16,0,24,0l0,0c0,8,0,16,0,24C445.4,27.4,437.4,27.4,429.4,27.4z"/>
		<path class="st20" d="M309.4,52.1c0,38.8,0,77.6,0,116.4c0,0.9,0,1.9,0,2.8c0,8,0,16,0,24c-8,0-16,0.1-24,0.1v-0.1c0-8,0-16,0-24
			s0-16,0-24c0-16,0-32,0-47.9c0-8,0-16,0-24c0-7.8,0-15.5,0-23.3C293.4,52.1,301.4,52.1,309.4,52.1z"/>
		<path class="st21" d="M285.4,75.4c0,8,0,16,0,24c-8,0-16,0-24,0c0-8,0-16-0.1-23.9l0.1-0.1C269.4,75.4,277.4,75.4,285.4,75.4z"/>
		<path class="st24" d="M285.4,219.4c-8,0-16,0-24,0s-16,0-24,0l0,0c0-8,0-16,0-24c8,0,16,0,24.1,0c8,0,16,0,24,0v0.1
			C285.4,203.4,285.4,211.4,285.4,219.4L285.4,219.4z"/>
		<path class="st23" d="M285.4,195.3c-8,0-16,0-24,0c0-8,0-16-0.1-24c8,0,16,0,24,0C285.4,179.3,285.4,187.3,285.4,195.3z"/>
		<path class="st15" d="M237.3,195.4c0,8,0,16,0,24c-8,0-16,0-23.9,0c0-8,0-16-0.1-24C221.4,195.4,229.4,195.4,237.3,195.4z"/>
		<path class="st18" d="M237.3,27.3c0,8,0,16,0,24c-16,0-32,0-48,0c0-8,0-16,0-24l0,0c8,0,16,0,24,0
			C221.4,27.3,229.4,27.3,237.3,27.3z"/>
		<path class="st21" d="M237.4,51.4c8,0,16,0,24,0c0,8,0,15.9,0.1,23.9l-0.1,0.1c-8,0-16,0-23.9-0.1
			C237.4,67.4,237.4,59.4,237.4,51.4z"/>
		<path class="st20" d="M189.4,27.4c-8,0-16,0-24,0c0-8,0-16,0-24l0,0c8,0,16,0,24,0l0,0C189.4,11.4,189.4,19.4,189.4,27.4
			L189.4,27.4z"/>
		<path class="st13" d="M285.4,219.4c0-8,0-15.9,0-23.9c8,0,16-0.1,24-0.1s16,0,24,0v0.1c0,8,0,15.9,0,23.9v0.1c-14,0-28,0-42-0.1
			C289.3,219.4,287.4,219.4,285.4,219.4z"/>
		<path class="st24" d="M333.4,219.3c0-8,0-15.9,0-23.9c8,0,16-0.1,24-0.1c0,8,0,16,0,24C349.4,219.3,341.4,219.3,333.4,219.3z"/>
		<path class="st25" d="M261.4,27.4c0-31.3,0-62.5,0-93.8c0-1.8,0.6-2.3,2.3-2.2c7.2,0.1,14.5,0,21.7,0l0,0c0,32,0,64,0,96
			C277.4,27.4,269.4,27.4,261.4,27.4z"/>
		<path class="st26" d="M237.3-20.6c0,8,0,16,0,24c-8,0-16,0-24,0s-16,0-24,0l0,0c0-8,0-16,0-24l0,0c8,0,16,0,23.9,0
			C221.3-20.6,229.3-20.6,237.3-20.6z"/>
		<path class="st5" d="M213.3-68.7c8,0,16,0.1,24,0.1c0,8,0,16,0,24c-8,0-16,0-24,0s-16,0-23.9,0l0,0c0-8,0-16,0-23.9
			C197.4-68.6,205.4-68.6,213.3-68.7z"/>
		<path class="st23" d="M261.4,27.4c8,0,16,0,24,0c0,8.2,0,16.5,0,24.7c0,7.8,0,15.5,0,23.3c-8,0-16,0-23.9-0.1c0-8,0-15.9-0.1-23.9
			C261.4,43.4,261.4,35.4,261.4,27.4z"/>
		<path class="st9" d="M213.3-44.6c8,0,16,0,24,0c0,8,0,16,0,24c-8,0-16,0-24,0C213.3-28.6,213.3-36.6,213.3-44.6z"/>
		<path class="st11" d="M213.3,3.4c8,0,16,0,24,0c0,8,0,16,0,24c-8,0-16,0-23.9,0C213.4,19.4,213.4,11.4,213.3,3.4z"/>
		<path class="st27" d="M333.4,27.4c0-32,0-64,0-96c8,0,16,0,24,0c0,32,0,64,0,96C349.4,27.4,341.4,27.4,333.4,27.4z"/>
		<path class="st5" d="M381.4-68.6c8,0,16,0,24-0.1c8,0,16,0.1,23.9,0.1c0,8,0,16,0,23.9l0,0c-8,0-15.9,0-23.9,0c0,8.1,0,16,0,24
			c-8,0-16,0-24,0C381.4-36.6,381.4-52.6,381.4-68.6z"/>
		<path class="st26" d="M381.4-20.6c8,0,16,0,24,0s16,0,23.9,0l0,0c0,8,0,16,0,24v0.1c-8,0-16,0-24,0s-16,0-24,0
			C381.4-4.6,381.4-12.6,381.4-20.6z"/>
		<path class="st19" d="M333.4,27.4c8,0,16,0,24,0c0,8,0,16,0,24s0,16-0.1,23.9c-8,0-16,0-24,0C333.4,59.4,333.4,43.4,333.4,27.4z"
			/>
		<path class="st8" d="M381.4,3.4c8,0,16,0,24,0c0,7.9,0,15.8,0,23.9c-8.2,0-16.1,0-24,0C381.4,19.3,381.4,11.4,381.4,3.4z"/>
		<path class="st28" d="M285.4,52.1c0-8.2,0-16.5,0-24.7c0-32,0-64,0-96c8,0,16,0,24,0c0,40.3,0,80.5,0,120.8
			C301.4,52.1,293.4,52.1,285.4,52.1z"/>
		<path class="st11" d="M189.4-68.6c0,8,0,16,0,23.9c-8,0-16,0-23.9,0h-0.1c0-8,0-16,0.1-24C173.4-68.6,181.4-68.6,189.4-68.6z"/>
		<path class="st8" d="M429.4-44.6c0-8,0-16,0-23.9c8,0,16,0,24-0.1c0,8,0,16-0.1,24C445.3-44.6,437.4-44.6,429.4-44.6z"/>
		<path class="st8" d="M429.4,3.4c0-8,0-16,0-24c8,0,16,0,23.9,0c0,8,0,16,0.1,24C445.4,3.4,437.4,3.4,429.4,3.4z"/>
		<path class="st9" d="M453.3-20.6c-8,0-16,0-23.9,0l0,0c0-8,0-16,0-24l0,0c8,0,16,0,23.9,0C453.3-36.6,453.3-28.6,453.3-20.6z"/>
		<path class="st11" d="M189.4-20.6c0,8,0,16,0,24c-8,0-16,0-24,0c0-8,0-16-0.1-24h0.1C173.4-20.6,181.4-20.6,189.4-20.6z"/>
		<path class="st9" d="M189.4-20.6c-8,0-16,0-23.9,0c0-8,0-16,0-24c8,0,16,0,23.9,0l0,0C189.4-36.6,189.4-28.6,189.4-20.6
			L189.4-20.6z"/>
		<path class="st18" d="M333.4,195.3c-8,0-16,0-24,0c0-8,0-16,0-24c8,0,16,0,24,0.1C333.4,179.4,333.4,187.3,333.4,195.3z"/>
		<path class="st21" d="M213.3,3.4c0,8,0,16,0.1,24c-8,0-16,0-24,0c0-8,0-16,0-24C197.4,3.4,205.3,3.4,213.3,3.4z"/>
	</g>
</g>
</svg>
